<mxfile host="app.diagrams.net" modified="2022-12-29T15:53:01.070Z" agent="5.0 (Windows NT 10.0; Win64; x64) AppleWebKit/537.36 (KHTML, like Gecko) Chrome/108.0.0.0 Safari/537.36" version="20.7.4" etag="6NLTFXdn37T-8Z6R5a9U" type="github">
  <diagram id="hKtsPK7-yvSs29hiWhlE" name="Page-1">
    <mxGraphModel dx="2049" dy="1973" grid="1" gridSize="10" guides="1" tooltips="1" connect="1" arrows="1" fold="1" page="1" pageScale="1" pageWidth="1169" pageHeight="827" math="0" shadow="0">
      <root>
        <mxCell id="0" />
        <mxCell id="1" parent="0" />
        <mxCell id="I_RN4L1O6mb_XSIuqVTv-85" value="" style="edgeStyle=orthogonalEdgeStyle;rounded=0;orthogonalLoop=1;jettySize=auto;html=1;fontFamily=Baloo;fontSource=https%3A%2F%2Ffonts.googleapis.com%2Fcss%3Ffamily%3DBaloo;fontStyle=0;labelBackgroundColor=none;fontColor=default;fillColor=none;strokeWidth=2;" edge="1" parent="1" source="I_RN4L1O6mb_XSIuqVTv-88" target="I_RN4L1O6mb_XSIuqVTv-91">
          <mxGeometry relative="1" as="geometry">
            <Array as="points">
              <mxPoint x="300" y="20" />
            </Array>
          </mxGeometry>
        </mxCell>
        <mxCell id="I_RN4L1O6mb_XSIuqVTv-86" value="" style="edgeStyle=orthogonalEdgeStyle;rounded=0;orthogonalLoop=1;jettySize=auto;html=1;fontFamily=Baloo;fontSource=https%3A%2F%2Ffonts.googleapis.com%2Fcss%3Ffamily%3DBaloo;fontStyle=0;labelBackgroundColor=none;fontColor=default;fillColor=none;strokeWidth=2;" edge="1" parent="1" source="I_RN4L1O6mb_XSIuqVTv-88" target="I_RN4L1O6mb_XSIuqVTv-95">
          <mxGeometry relative="1" as="geometry" />
        </mxCell>
        <mxCell id="I_RN4L1O6mb_XSIuqVTv-87" value="" style="edgeStyle=orthogonalEdgeStyle;rounded=0;orthogonalLoop=1;jettySize=auto;html=1;fontFamily=Baloo;fontSource=https%3A%2F%2Ffonts.googleapis.com%2Fcss%3Ffamily%3DBaloo;fontStyle=0;labelBackgroundColor=none;fontColor=default;fillColor=none;strokeWidth=2;" edge="1" parent="1" source="I_RN4L1O6mb_XSIuqVTv-88" target="I_RN4L1O6mb_XSIuqVTv-129">
          <mxGeometry relative="1" as="geometry" />
        </mxCell>
        <mxCell id="I_RN4L1O6mb_XSIuqVTv-88" value="Main Screen" style="rounded=1;whiteSpace=wrap;html=1;fontSize=12;glass=0;strokeWidth=2;shadow=0;fontFamily=Baloo;fontStyle=0;fontSource=https%3A%2F%2Ffonts.googleapis.com%2Fcss%3Ffamily%3DBaloo;labelBackgroundColor=none;fillColor=none;" vertex="1" parent="1">
          <mxGeometry x="480" width="117" height="40" as="geometry" />
        </mxCell>
        <mxCell id="I_RN4L1O6mb_XSIuqVTv-89" value="" style="edgeStyle=orthogonalEdgeStyle;rounded=0;orthogonalLoop=1;jettySize=auto;html=1;fontFamily=Baloo;fontSource=https%3A%2F%2Ffonts.googleapis.com%2Fcss%3Ffamily%3DBaloo;fontStyle=0;labelBackgroundColor=none;fontColor=default;fillColor=none;strokeWidth=2;" edge="1" parent="1" source="I_RN4L1O6mb_XSIuqVTv-91" target="I_RN4L1O6mb_XSIuqVTv-96">
          <mxGeometry relative="1" as="geometry">
            <Array as="points">
              <mxPoint x="140" y="160" />
            </Array>
          </mxGeometry>
        </mxCell>
        <mxCell id="I_RN4L1O6mb_XSIuqVTv-90" value="" style="edgeStyle=orthogonalEdgeStyle;rounded=0;orthogonalLoop=1;jettySize=auto;html=1;fontFamily=Baloo;fontSource=https%3A%2F%2Ffonts.googleapis.com%2Fcss%3Ffamily%3DBaloo;fontStyle=0;labelBackgroundColor=none;fontColor=default;fillColor=none;strokeWidth=2;" edge="1" parent="1" source="I_RN4L1O6mb_XSIuqVTv-91" target="I_RN4L1O6mb_XSIuqVTv-100">
          <mxGeometry relative="1" as="geometry" />
        </mxCell>
        <mxCell id="I_RN4L1O6mb_XSIuqVTv-91" value="Recent cards/See all" style="rounded=1;whiteSpace=wrap;html=1;fontSize=12;glass=0;strokeWidth=2;shadow=0;fontFamily=Baloo;fontStyle=0;fontSource=https%3A%2F%2Ffonts.googleapis.com%2Fcss%3Ffamily%3DBaloo;labelBackgroundColor=none;fillColor=none;" vertex="1" parent="1">
          <mxGeometry x="240" y="140" width="117" height="40" as="geometry" />
        </mxCell>
        <mxCell id="I_RN4L1O6mb_XSIuqVTv-92" value="" style="edgeStyle=orthogonalEdgeStyle;rounded=0;orthogonalLoop=1;jettySize=auto;html=1;fontFamily=Baloo;fontSource=https%3A%2F%2Ffonts.googleapis.com%2Fcss%3Ffamily%3DBaloo;fontStyle=0;labelBackgroundColor=none;fontColor=default;fillColor=none;strokeWidth=2;" edge="1" parent="1" source="I_RN4L1O6mb_XSIuqVTv-95" target="I_RN4L1O6mb_XSIuqVTv-107">
          <mxGeometry relative="1" as="geometry" />
        </mxCell>
        <mxCell id="I_RN4L1O6mb_XSIuqVTv-93" value="" style="edgeStyle=orthogonalEdgeStyle;rounded=0;orthogonalLoop=1;jettySize=auto;html=1;fontFamily=Baloo;fontSource=https%3A%2F%2Ffonts.googleapis.com%2Fcss%3Ffamily%3DBaloo;fontStyle=0;labelBackgroundColor=none;fontColor=default;fillColor=none;strokeWidth=2;" edge="1" parent="1" source="I_RN4L1O6mb_XSIuqVTv-95" target="I_RN4L1O6mb_XSIuqVTv-109">
          <mxGeometry relative="1" as="geometry" />
        </mxCell>
        <mxCell id="I_RN4L1O6mb_XSIuqVTv-94" value="" style="edgeStyle=orthogonalEdgeStyle;rounded=0;orthogonalLoop=1;jettySize=auto;html=1;fontFamily=Baloo;fontSource=https%3A%2F%2Ffonts.googleapis.com%2Fcss%3Ffamily%3DBaloo;fontStyle=0;labelBackgroundColor=none;fontColor=default;fillColor=none;strokeWidth=2;" edge="1" parent="1" source="I_RN4L1O6mb_XSIuqVTv-95" target="I_RN4L1O6mb_XSIuqVTv-114">
          <mxGeometry relative="1" as="geometry">
            <Array as="points">
              <mxPoint x="796" y="230" />
            </Array>
          </mxGeometry>
        </mxCell>
        <mxCell id="I_RN4L1O6mb_XSIuqVTv-95" value="Recent Friends/See all" style="rounded=1;whiteSpace=wrap;html=1;fontSize=12;glass=0;strokeWidth=2;shadow=0;fontFamily=Baloo;fontStyle=0;fontSource=https%3A%2F%2Ffonts.googleapis.com%2Fcss%3Ffamily%3DBaloo;labelBackgroundColor=none;fillColor=none;" vertex="1" parent="1">
          <mxGeometry x="738" y="140" width="117" height="40" as="geometry" />
        </mxCell>
        <mxCell id="I_RN4L1O6mb_XSIuqVTv-96" value="Add new card" style="rounded=1;whiteSpace=wrap;html=1;fontSize=12;glass=0;strokeWidth=2;shadow=0;fontFamily=Baloo;fontStyle=0;fontSource=https%3A%2F%2Ffonts.googleapis.com%2Fcss%3Ffamily%3DBaloo;labelBackgroundColor=none;fillColor=none;" vertex="1" parent="1">
          <mxGeometry x="70" y="140" width="117" height="40" as="geometry" />
        </mxCell>
        <mxCell id="I_RN4L1O6mb_XSIuqVTv-97" value="" style="edgeStyle=orthogonalEdgeStyle;rounded=0;orthogonalLoop=1;jettySize=auto;html=1;fontFamily=Baloo;fontSource=https%3A%2F%2Ffonts.googleapis.com%2Fcss%3Ffamily%3DBaloo;fontStyle=0;labelBackgroundColor=none;fontColor=default;fillColor=none;strokeWidth=2;" edge="1" parent="1" source="I_RN4L1O6mb_XSIuqVTv-100" target="I_RN4L1O6mb_XSIuqVTv-102">
          <mxGeometry relative="1" as="geometry" />
        </mxCell>
        <mxCell id="I_RN4L1O6mb_XSIuqVTv-98" value="" style="edgeStyle=orthogonalEdgeStyle;rounded=0;orthogonalLoop=1;jettySize=auto;html=1;fontFamily=Baloo;fontSource=https%3A%2F%2Ffonts.googleapis.com%2Fcss%3Ffamily%3DBaloo;fontStyle=0;labelBackgroundColor=none;fontColor=default;fillColor=none;strokeWidth=2;" edge="1" parent="1" source="I_RN4L1O6mb_XSIuqVTv-100" target="I_RN4L1O6mb_XSIuqVTv-103">
          <mxGeometry relative="1" as="geometry" />
        </mxCell>
        <mxCell id="I_RN4L1O6mb_XSIuqVTv-99" value="" style="edgeStyle=orthogonalEdgeStyle;rounded=0;orthogonalLoop=1;jettySize=auto;html=1;fontFamily=Baloo;exitX=1;exitY=0.5;exitDx=0;exitDy=0;fontSource=https%3A%2F%2Ffonts.googleapis.com%2Fcss%3Ffamily%3DBaloo;fontStyle=0;labelBackgroundColor=none;fontColor=default;fillColor=none;strokeWidth=2;" edge="1" parent="1" source="I_RN4L1O6mb_XSIuqVTv-100" target="I_RN4L1O6mb_XSIuqVTv-106">
          <mxGeometry relative="1" as="geometry">
            <mxPoint x="360" y="240" as="sourcePoint" />
          </mxGeometry>
        </mxCell>
        <mxCell id="I_RN4L1O6mb_XSIuqVTv-100" value="See all transactions" style="rounded=1;whiteSpace=wrap;html=1;fontSize=12;glass=0;strokeWidth=2;shadow=0;fontFamily=Baloo;fontStyle=0;fontSource=https%3A%2F%2Ffonts.googleapis.com%2Fcss%3Ffamily%3DBaloo;labelBackgroundColor=none;fillColor=none;" vertex="1" parent="1">
          <mxGeometry x="240" y="220" width="117" height="40" as="geometry" />
        </mxCell>
        <mxCell id="I_RN4L1O6mb_XSIuqVTv-101" value="" style="edgeStyle=orthogonalEdgeStyle;rounded=0;orthogonalLoop=1;jettySize=auto;html=1;fontFamily=Baloo;fontSource=https%3A%2F%2Ffonts.googleapis.com%2Fcss%3Ffamily%3DBaloo;fontStyle=0;labelBackgroundColor=none;fontColor=default;fillColor=none;strokeWidth=2;" edge="1" parent="1" source="I_RN4L1O6mb_XSIuqVTv-102" target="I_RN4L1O6mb_XSIuqVTv-104">
          <mxGeometry relative="1" as="geometry" />
        </mxCell>
        <mxCell id="I_RN4L1O6mb_XSIuqVTv-102" value="Transaction history" style="rounded=1;whiteSpace=wrap;html=1;fontSize=12;glass=0;strokeWidth=2;shadow=0;fontFamily=Baloo;fontStyle=0;fontSource=https%3A%2F%2Ffonts.googleapis.com%2Fcss%3Ffamily%3DBaloo;labelBackgroundColor=none;fillColor=none;" vertex="1" parent="1">
          <mxGeometry x="240" y="280" width="117" height="40" as="geometry" />
        </mxCell>
        <mxCell id="I_RN4L1O6mb_XSIuqVTv-103" value="Saving and expenses graph" style="rounded=1;whiteSpace=wrap;html=1;fontSize=12;glass=0;strokeWidth=2;shadow=0;fontFamily=Baloo;fontStyle=0;fontSource=https%3A%2F%2Ffonts.googleapis.com%2Fcss%3Ffamily%3DBaloo;labelBackgroundColor=none;fillColor=none;" vertex="1" parent="1">
          <mxGeometry x="90" y="280" width="117" height="40" as="geometry" />
        </mxCell>
        <mxCell id="I_RN4L1O6mb_XSIuqVTv-104" value="Search Transaction hsitory" style="rounded=1;whiteSpace=wrap;html=1;fontSize=12;glass=0;strokeWidth=2;shadow=0;fontFamily=Baloo;fontStyle=0;fontSource=https%3A%2F%2Ffonts.googleapis.com%2Fcss%3Ffamily%3DBaloo;labelBackgroundColor=none;fillColor=none;" vertex="1" parent="1">
          <mxGeometry x="240" y="340" width="117" height="40" as="geometry" />
        </mxCell>
        <mxCell id="I_RN4L1O6mb_XSIuqVTv-105" value="" style="edgeStyle=orthogonalEdgeStyle;rounded=0;orthogonalLoop=1;jettySize=auto;html=1;fontFamily=Baloo;fontSource=https%3A%2F%2Ffonts.googleapis.com%2Fcss%3Ffamily%3DBaloo;fontStyle=0;labelBackgroundColor=none;fontColor=default;fillColor=none;strokeWidth=2;" edge="1" parent="1" source="I_RN4L1O6mb_XSIuqVTv-106" target="I_RN4L1O6mb_XSIuqVTv-100">
          <mxGeometry relative="1" as="geometry" />
        </mxCell>
        <mxCell id="I_RN4L1O6mb_XSIuqVTv-106" value="change card" style="rounded=1;whiteSpace=wrap;html=1;fontSize=12;glass=0;strokeWidth=2;shadow=0;fontFamily=Baloo;fontStyle=0;fontSource=https%3A%2F%2Ffonts.googleapis.com%2Fcss%3Ffamily%3DBaloo;labelBackgroundColor=none;fillColor=none;" vertex="1" parent="1">
          <mxGeometry x="410" y="220" width="117" height="40" as="geometry" />
        </mxCell>
        <mxCell id="I_RN4L1O6mb_XSIuqVTv-107" value="Add/Remove friends" style="rounded=1;whiteSpace=wrap;html=1;fontSize=12;glass=0;strokeWidth=2;shadow=0;fontFamily=Baloo;fontStyle=0;fontSource=https%3A%2F%2Ffonts.googleapis.com%2Fcss%3Ffamily%3DBaloo;labelBackgroundColor=none;fillColor=none;" vertex="1" parent="1">
          <mxGeometry x="587" y="140" width="117" height="40" as="geometry" />
        </mxCell>
        <mxCell id="I_RN4L1O6mb_XSIuqVTv-108" value="" style="edgeStyle=orthogonalEdgeStyle;rounded=0;orthogonalLoop=1;jettySize=auto;html=1;fontFamily=Baloo;fontSource=https%3A%2F%2Ffonts.googleapis.com%2Fcss%3Ffamily%3DBaloo;fontStyle=0;labelBackgroundColor=none;fontColor=default;fillColor=none;strokeWidth=2;" edge="1" parent="1" source="I_RN4L1O6mb_XSIuqVTv-109" target="I_RN4L1O6mb_XSIuqVTv-111">
          <mxGeometry relative="1" as="geometry">
            <Array as="points">
              <mxPoint x="940" y="250" />
              <mxPoint x="940" y="250" />
            </Array>
          </mxGeometry>
        </mxCell>
        <mxCell id="I_RN4L1O6mb_XSIuqVTv-109" value="Search friends" style="rounded=1;whiteSpace=wrap;html=1;fontSize=12;glass=0;strokeWidth=2;shadow=0;fontFamily=Baloo;fontStyle=0;fontSource=https%3A%2F%2Ffonts.googleapis.com%2Fcss%3Ffamily%3DBaloo;labelBackgroundColor=none;fillColor=none;" vertex="1" parent="1">
          <mxGeometry x="890" y="140" width="117" height="40" as="geometry" />
        </mxCell>
        <mxCell id="I_RN4L1O6mb_XSIuqVTv-110" value="" style="edgeStyle=orthogonalEdgeStyle;rounded=0;orthogonalLoop=1;jettySize=auto;html=1;fontFamily=Baloo;fontSource=https%3A%2F%2Ffonts.googleapis.com%2Fcss%3Ffamily%3DBaloo;fontStyle=0;labelBackgroundColor=none;fontColor=default;fillColor=none;strokeWidth=2;" edge="1" parent="1" source="I_RN4L1O6mb_XSIuqVTv-111" target="I_RN4L1O6mb_XSIuqVTv-117">
          <mxGeometry relative="1" as="geometry" />
        </mxCell>
        <mxCell id="I_RN4L1O6mb_XSIuqVTv-111" value="Select amount" style="rounded=1;whiteSpace=wrap;html=1;fontSize=12;glass=0;strokeWidth=2;shadow=0;fontFamily=Baloo;fontStyle=0;fontSource=https%3A%2F%2Ffonts.googleapis.com%2Fcss%3Ffamily%3DBaloo;labelBackgroundColor=none;fillColor=none;" vertex="1" parent="1">
          <mxGeometry x="890" y="280" width="117" height="40" as="geometry" />
        </mxCell>
        <mxCell id="I_RN4L1O6mb_XSIuqVTv-112" value="" style="edgeStyle=orthogonalEdgeStyle;rounded=0;orthogonalLoop=1;jettySize=auto;html=1;fontFamily=Baloo;fontSource=https%3A%2F%2Ffonts.googleapis.com%2Fcss%3Ffamily%3DBaloo;fontStyle=0;labelBackgroundColor=none;fontColor=default;fillColor=none;strokeWidth=2;" edge="1" parent="1" source="I_RN4L1O6mb_XSIuqVTv-114" target="I_RN4L1O6mb_XSIuqVTv-126">
          <mxGeometry relative="1" as="geometry">
            <Array as="points">
              <mxPoint x="586" y="230" />
            </Array>
          </mxGeometry>
        </mxCell>
        <mxCell id="I_RN4L1O6mb_XSIuqVTv-113" value="" style="edgeStyle=orthogonalEdgeStyle;rounded=0;orthogonalLoop=1;jettySize=auto;html=1;strokeWidth=2;" edge="1" parent="1" source="I_RN4L1O6mb_XSIuqVTv-114" target="I_RN4L1O6mb_XSIuqVTv-128">
          <mxGeometry relative="1" as="geometry" />
        </mxCell>
        <mxCell id="I_RN4L1O6mb_XSIuqVTv-114" value="Friend&#39;s profile" style="rounded=1;whiteSpace=wrap;html=1;fontSize=12;glass=0;strokeWidth=2;shadow=0;fontFamily=Baloo;fontStyle=0;fontSource=https%3A%2F%2Ffonts.googleapis.com%2Fcss%3Ffamily%3DBaloo;labelBackgroundColor=none;fillColor=none;" vertex="1" parent="1">
          <mxGeometry x="600" y="210" width="117" height="40" as="geometry" />
        </mxCell>
        <mxCell id="I_RN4L1O6mb_XSIuqVTv-115" value="" style="edgeStyle=orthogonalEdgeStyle;rounded=0;orthogonalLoop=1;jettySize=auto;html=1;fontFamily=Baloo;entryX=0.504;entryY=0.064;entryDx=0;entryDy=0;entryPerimeter=0;fontSource=https%3A%2F%2Ffonts.googleapis.com%2Fcss%3Ffamily%3DBaloo;fontStyle=0;labelBackgroundColor=none;fontColor=default;fillColor=none;strokeWidth=2;" edge="1" parent="1" source="I_RN4L1O6mb_XSIuqVTv-117" target="I_RN4L1O6mb_XSIuqVTv-119">
          <mxGeometry relative="1" as="geometry" />
        </mxCell>
        <mxCell id="I_RN4L1O6mb_XSIuqVTv-116" value="" style="edgeStyle=orthogonalEdgeStyle;rounded=0;orthogonalLoop=1;jettySize=auto;html=1;fontFamily=Baloo;entryX=0.496;entryY=0.057;entryDx=0;entryDy=0;entryPerimeter=0;fontSource=https%3A%2F%2Ffonts.googleapis.com%2Fcss%3Ffamily%3DBaloo;fontStyle=0;labelBackgroundColor=none;fontColor=default;fillColor=none;strokeWidth=2;" edge="1" parent="1" target="I_RN4L1O6mb_XSIuqVTv-121">
          <mxGeometry relative="1" as="geometry">
            <mxPoint x="1007" y="417" as="sourcePoint" />
            <mxPoint x="1070" y="457" as="targetPoint" />
          </mxGeometry>
        </mxCell>
        <mxCell id="I_RN4L1O6mb_XSIuqVTv-117" value="Are you sure?" style="rounded=1;whiteSpace=wrap;html=1;fontSize=12;glass=0;strokeWidth=2;shadow=0;fontFamily=Baloo;fontStyle=0;fontSource=https%3A%2F%2Ffonts.googleapis.com%2Fcss%3Ffamily%3DBaloo;labelBackgroundColor=none;fillColor=none;" vertex="1" parent="1">
          <mxGeometry x="890" y="400" width="117" height="40" as="geometry" />
        </mxCell>
        <mxCell id="I_RN4L1O6mb_XSIuqVTv-118" value="" style="edgeStyle=orthogonalEdgeStyle;rounded=0;orthogonalLoop=1;jettySize=auto;html=1;fontFamily=Baloo;fontSource=https%3A%2F%2Ffonts.googleapis.com%2Fcss%3Ffamily%3DBaloo;fontStyle=0;labelBackgroundColor=none;fontColor=default;fillColor=none;strokeWidth=2;" edge="1" parent="1" source="I_RN4L1O6mb_XSIuqVTv-119" target="I_RN4L1O6mb_XSIuqVTv-122">
          <mxGeometry relative="1" as="geometry" />
        </mxCell>
        <mxCell id="I_RN4L1O6mb_XSIuqVTv-119" value="Yes" style="rhombus;whiteSpace=wrap;html=1;fontFamily=Baloo;rounded=1;glass=0;strokeWidth=2;shadow=0;fontStyle=0;fontSource=https%3A%2F%2Ffonts.googleapis.com%2Fcss%3Ffamily%3DBaloo;labelBackgroundColor=none;fillColor=none;" vertex="1" parent="1">
          <mxGeometry x="790" y="460" width="80" height="80" as="geometry" />
        </mxCell>
        <mxCell id="I_RN4L1O6mb_XSIuqVTv-120" style="edgeStyle=orthogonalEdgeStyle;rounded=0;orthogonalLoop=1;jettySize=auto;html=1;fontFamily=Baloo;fontSource=https%3A%2F%2Ffonts.googleapis.com%2Fcss%3Ffamily%3DBaloo;fontStyle=0;labelBackgroundColor=none;fontColor=default;fillColor=none;strokeWidth=2;" edge="1" parent="1">
          <mxGeometry relative="1" as="geometry">
            <mxPoint x="1106" y="500.0000000000002" as="sourcePoint" />
            <mxPoint x="1006" y="300" as="targetPoint" />
            <Array as="points">
              <mxPoint x="1136" y="500" />
              <mxPoint x="1136" y="300" />
            </Array>
          </mxGeometry>
        </mxCell>
        <mxCell id="I_RN4L1O6mb_XSIuqVTv-121" value="No" style="rhombus;whiteSpace=wrap;html=1;fontFamily=Baloo;rounded=1;glass=0;strokeWidth=2;shadow=0;fontStyle=0;fontSource=https%3A%2F%2Ffonts.googleapis.com%2Fcss%3Ffamily%3DBaloo;labelBackgroundColor=none;fillColor=none;" vertex="1" parent="1">
          <mxGeometry x="1030" y="460" width="80" height="80" as="geometry" />
        </mxCell>
        <mxCell id="I_RN4L1O6mb_XSIuqVTv-122" value="Request sent/Amount sent" style="whiteSpace=wrap;html=1;fontFamily=Baloo;rounded=1;glass=0;strokeWidth=2;shadow=0;fontStyle=0;fontSource=https%3A%2F%2Ffonts.googleapis.com%2Fcss%3Ffamily%3DBaloo;labelBackgroundColor=none;fillColor=none;" vertex="1" parent="1">
          <mxGeometry x="770" y="630" width="120" height="60" as="geometry" />
        </mxCell>
        <mxCell id="I_RN4L1O6mb_XSIuqVTv-123" value="" style="edgeStyle=orthogonalEdgeStyle;rounded=0;orthogonalLoop=1;jettySize=auto;html=1;fontFamily=Baloo;fontSource=https%3A%2F%2Ffonts.googleapis.com%2Fcss%3Ffamily%3DBaloo;fontStyle=0;labelBackgroundColor=none;fontColor=default;fillColor=none;strokeWidth=2;" edge="1" parent="1" source="I_RN4L1O6mb_XSIuqVTv-126" target="I_RN4L1O6mb_XSIuqVTv-130">
          <mxGeometry relative="1" as="geometry" />
        </mxCell>
        <mxCell id="I_RN4L1O6mb_XSIuqVTv-124" value="" style="edgeStyle=orthogonalEdgeStyle;rounded=0;orthogonalLoop=1;jettySize=auto;html=1;fontFamily=Baloo;fontSource=https%3A%2F%2Ffonts.googleapis.com%2Fcss%3Ffamily%3DBaloo;fontStyle=0;labelBackgroundColor=none;fontColor=default;fillColor=none;strokeWidth=2;" edge="1" parent="1" source="I_RN4L1O6mb_XSIuqVTv-126" target="I_RN4L1O6mb_XSIuqVTv-131">
          <mxGeometry relative="1" as="geometry" />
        </mxCell>
        <mxCell id="I_RN4L1O6mb_XSIuqVTv-125" value="" style="edgeStyle=orthogonalEdgeStyle;rounded=0;orthogonalLoop=1;jettySize=auto;html=1;fontFamily=Baloo;fontSource=https%3A%2F%2Ffonts.googleapis.com%2Fcss%3Ffamily%3DBaloo;fontStyle=0;labelBackgroundColor=none;fontColor=default;fillColor=none;strokeWidth=2;" edge="1" parent="1" source="I_RN4L1O6mb_XSIuqVTv-126" target="I_RN4L1O6mb_XSIuqVTv-132">
          <mxGeometry relative="1" as="geometry" />
        </mxCell>
        <mxCell id="I_RN4L1O6mb_XSIuqVTv-126" value="Friend&#39;s profile" style="rounded=1;whiteSpace=wrap;html=1;fontSize=12;glass=0;strokeWidth=2;shadow=0;fontFamily=Baloo;fontStyle=0;fontSource=https%3A%2F%2Ffonts.googleapis.com%2Fcss%3Ffamily%3DBaloo;labelBackgroundColor=none;fillColor=none;" vertex="1" parent="1">
          <mxGeometry x="510" y="410" width="117" height="40" as="geometry" />
        </mxCell>
        <mxCell id="I_RN4L1O6mb_XSIuqVTv-127" style="edgeStyle=orthogonalEdgeStyle;rounded=0;orthogonalLoop=1;jettySize=auto;html=1;entryX=0;entryY=0.5;entryDx=0;entryDy=0;strokeWidth=2;" edge="1" parent="1" source="I_RN4L1O6mb_XSIuqVTv-128" target="I_RN4L1O6mb_XSIuqVTv-111">
          <mxGeometry relative="1" as="geometry" />
        </mxCell>
        <mxCell id="I_RN4L1O6mb_XSIuqVTv-128" value="Give/Request" style="rounded=1;whiteSpace=wrap;html=1;fontSize=12;glass=0;strokeWidth=2;shadow=0;fontFamily=Baloo;fontStyle=0;fontSource=https%3A%2F%2Ffonts.googleapis.com%2Fcss%3Ffamily%3DBaloo;labelBackgroundColor=none;fillColor=none;" vertex="1" parent="1">
          <mxGeometry x="600" y="280" width="117" height="40" as="geometry" />
        </mxCell>
        <mxCell id="I_RN4L1O6mb_XSIuqVTv-129" value="Total Amount" style="rounded=1;whiteSpace=wrap;html=1;fontSize=12;glass=0;strokeWidth=2;shadow=0;fontFamily=Baloo;fontStyle=0;arcSize=50;fontSource=https%3A%2F%2Ffonts.googleapis.com%2Fcss%3Ffamily%3DBaloo;labelBackgroundColor=none;fillColor=none;" vertex="1" parent="1">
          <mxGeometry x="427" y="140" width="120" height="40" as="geometry" />
        </mxCell>
        <mxCell id="I_RN4L1O6mb_XSIuqVTv-130" value="All transaction history with this friend&lt;br&gt;" style="rounded=1;whiteSpace=wrap;html=1;fontSize=12;glass=0;strokeWidth=2;shadow=0;fontFamily=Baloo;fontStyle=0;fontSource=https%3A%2F%2Ffonts.googleapis.com%2Fcss%3Ffamily%3DBaloo;labelBackgroundColor=none;fillColor=none;" vertex="1" parent="1">
          <mxGeometry x="510" y="620" width="117" height="40" as="geometry" />
        </mxCell>
        <mxCell id="I_RN4L1O6mb_XSIuqVTv-131" value="Block friend" style="rounded=1;whiteSpace=wrap;html=1;fontSize=12;glass=0;strokeWidth=2;shadow=0;fontFamily=Baloo;fontStyle=0;fontSource=https%3A%2F%2Ffonts.googleapis.com%2Fcss%3Ffamily%3DBaloo;labelBackgroundColor=none;fillColor=none;" vertex="1" parent="1">
          <mxGeometry x="140" y="620" width="117" height="40" as="geometry" />
        </mxCell>
        <mxCell id="I_RN4L1O6mb_XSIuqVTv-132" value="Remove friend" style="rounded=1;whiteSpace=wrap;html=1;fontSize=12;glass=0;strokeWidth=2;shadow=0;fontFamily=Baloo;fontStyle=0;fontSource=https%3A%2F%2Ffonts.googleapis.com%2Fcss%3Ffamily%3DBaloo;labelBackgroundColor=none;fillColor=none;" vertex="1" parent="1">
          <mxGeometry x="310" y="620" width="117" height="40" as="geometry" />
        </mxCell>
      </root>
    </mxGraphModel>
  </diagram>
</mxfile>
